# xmcd
# Copyright (C) 1995-1998 Ti Kan
#
# Track frame offsets:
#       150
#       18497
#       35786
#       53365
#       73893
#       90546
#       110284
#       123641
#       144380
#       163601
#       173408
#       196426
#       221503
#
# Disc length: 3264 seconds
#
# Revision: 0
# Processed by: cddbd v1.5.2PL0 Copyright (c) Steve Scherf et al.
# Submitted via: CD-Transfer v1.0
#
DISCID=b20cbe0d
DTITLE=Los Fabulosos Cadillacs - F. Ciancirullo, Vicentico
DYEAR=08
DGENRE=
TTITLE0=La Luz Del Ritmo
TTITLE1=Mai Bicho
TTITLE2=Flores
TTITLE3=Pader Nuestro
TTITLE4=Nosotros Egoistas
TTITLE5=Hoj
TTITLE6=Should I Stay, Or Should I Go
TTITLE7=El Genio Del Dub
TTITLE8=Basta De Llamarne Asi
TTITLE9=El Fin Del Amor
TTITLE10=Muj, Muj Temprano
TTITLE11=Wake Up And Make Love With Me
TTITLE12=Condenaditos
EXTD=
EXTT0=
EXTT1=
EXTT2=
EXTT3=
EXTT4=
EXTT5=
EXTT6=
EXTT7=
EXTT8=
EXTT9=
EXTT10=
EXTT11=
EXTT12=
PLAYORDER=
